<?xml version="1.0" encoding="utf-8"?>
<!-- Generator: Adobe Illustrator 24.3.0, SVG Export Plug-In . SVG Version: 6.00 Build 0)  -->
<svg version="1.1" id="Layer_1" xmlns="http://www.w3.org/2000/svg" xmlns:xlink="http://www.w3.org/1999/xlink" x="0px" y="0px"
	 viewBox="0 0 206.9 170.1" style="enable-background:new 0 0 206.9 170.1;" xml:space="preserve">
<style type="text/css">
	.st0{fill:#FFFFFF;}
</style>
<g>
	<g>
		<path class="st0" d="M97.4,4c21.5,0,35.3,4.5,42.9,13.7c6.9,8.6,9.6,22.7,9.6,50.3c0,28-3.2,41.7-11.8,50.5c-0.3,0.3-0.7,0.6-1,1
			l13.1,27L178.6,88h21.3v77.7h-13.7l0.5-64l-31.2,64h-11L125.3,126c-3.4,1.1-7.3,1.9-11.7,2.4l0.2,37.2h-13.6v-36.5
			c-0.1,0-0.1,0-0.2,0H3.8v-82h26v59.1h64.5c2.1,0,4.1-0.1,5.9-0.2V88h21.6l0.3,0.6c1-5,1.5-11.3,1.5-19.3
			c0-34.7-4.9-41.7-29.2-41.7H29.8v0h-26V4H97.4 M97.4,1H3.8h-3v3v23.7v3h3h26h3v0h61.5c12.2,0,17.9,1.8,21.3,6.5
			c3.6,5.1,4.9,14.1,4.9,32.1c0,6.3-0.3,11.5-0.9,15.7h-19.4h-3v3v15.2c-0.9,0-1.9,0.1-2.9,0.1H32.8V47.2v-3h-3h-26h-3v3v82v3h3
			h93.5v33.5v3h3h13.6h3l0-3l-0.2-34.6c2.5-0.4,4.9-0.9,7.1-1.4l18.1,37.4l0.8,1.7h1.9h11h1.9l0.8-1.7l25.4-52.1l-0.4,50.7l0,3h3
			h13.7h3v-3V88v-3h-3h-21.3h-1.9l-0.8,1.7l-25.6,52.9l-9.5-19.5c8.9-9.5,12.2-23.7,12.2-52.1c0-28.3-2.9-42.9-10.3-52.2
			C134.4,5.8,119.6,1,97.4,1L97.4,1z"/>
	</g>
	<g>
		<path class="st0" d="M191.2,60.2c6.3,0,11.5,5.2,11.5,11.5v0c0,6.3-5.2,11.5-11.5,11.5h0c-6.3,0-11.5-5.2-11.5-11.5v0
			C179.8,65.4,184.9,60.2,191.2,60.2L191.2,60.2 M191.2,57.2c-8,0-14.5,6.5-14.5,14.5s6.5,14.5,14.5,14.5c8,0,14.5-6.5,14.5-14.5
			S199.2,57.2,191.2,57.2L191.2,57.2z"/>
	</g>
</g>
</svg>
